<svg width="640" height="320" xmlns="http://www.w3.org/2000/svg">
  <!-- 数字方块1-15 -->
  <rect x="0" y="0" width="80" height="80" fill="#ff6b6b" stroke="#000" stroke-width="2"/>
  <text x="40" y="50" font-family="Arial" font-size="28" text-anchor="middle" fill="white" font-weight="bold">1</text>
  
  <rect x="80" y="0" width="80" height="80" fill="#4ecdc4" stroke="#000" stroke-width="2"/>
  <text x="120" y="50" font-family="Arial" font-size="28" text-anchor="middle" fill="white" font-weight="bold">2</text>
  
  <rect x="160" y="0" width="80" height="80" fill="#45b7d1" stroke="#000" stroke-width="2"/>
  <text x="200" y="50" font-family="Arial" font-size="28" text-anchor="middle" fill="white" font-weight="bold">3</text>
  
  <rect x="240" y="0" width="80" height="80" fill="#96ceb4" stroke="#000" stroke-width="2"/>
  <text x="280" y="50" font-family="Arial" font-size="28" text-anchor="middle" fill="white" font-weight="bold">4</text>
  
  <rect x="320" y="0" width="80" height="80" fill="#ffeaa7" stroke="#000" stroke-width="2"/>
  <text x="360" y="50" font-family="Arial" font-size="28" text-anchor="middle" fill="black" font-weight="bold">5</text>
  
  <rect x="400" y="0" width="80" height="80" fill="#dda0dd" stroke="#000" stroke-width="2"/>
  <text x="440" y="50" font-family="Arial" font-size="28" text-anchor="middle" fill="white" font-weight="bold">6</text>
  
  <rect x="480" y="0" width="80" height="80" fill="#98d8c8" stroke="#000" stroke-width="2"/>
  <text x="520" y="50" font-family="Arial" font-size="28" text-anchor="middle" fill="white" font-weight="bold">7</text>
  
  <rect x="560" y="0" width="80" height="80" fill="#f7dc6f" stroke="#000" stroke-width="2"/>
  <text x="600" y="50" font-family="Arial" font-size="28" text-anchor="middle" fill="black" font-weight="bold">8</text>
  
  <rect x="0" y="80" width="80" height="80" fill="#bb8fce" stroke="#000" stroke-width="2"/>
  <text x="40" y="130" font-family="Arial" font-size="28" text-anchor="middle" fill="white" font-weight="bold">9</text>
  
  <rect x="80" y="80" width="80" height="80" fill="#85c1e2" stroke="#000" stroke-width="2"/>
  <text x="120" y="130" font-family="Arial" font-size="28" text-anchor="middle" fill="white" font-weight="bold">10</text>
  
  <rect x="160" y="80" width="80" height="80" fill="#f8b739" stroke="#000" stroke-width="2"/>
  <text x="200" y="130" font-family="Arial" font-size="28" text-anchor="middle" fill="white" font-weight="bold">11</text>
  
  <rect x="240" y="80" width="80" height="80" fill="#52b788" stroke="#000" stroke-width="2"/>
  <text x="280" y="130" font-family="Arial" font-size="28" text-anchor="middle" fill="white" font-weight="bold">12</text>
  
  <rect x="320" y="80" width="80" height="80" fill="#e74c3c" stroke="#000" stroke-width="2"/>
  <text x="360" y="130" font-family="Arial" font-size="28" text-anchor="middle" fill="white" font-weight="bold">13</text>
  
  <rect x="400" y="80" width="80" height="80" fill="#3498db" stroke="#000" stroke-width="2"/>
  <text x="440" y="130" font-family="Arial" font-size="28" text-anchor="middle" fill="white" font-weight="bold">14</text>
  
  <rect x="480" y="80" width="80" height="80" fill="#2ecc71" stroke="#000" stroke-width="2"/>
  <text x="520" y="130" font-family="Arial" font-size="28" text-anchor="middle" fill="white" font-weight="bold">15</text>
  
  <!-- 空白方块 -->
  <rect x="560" y="80" width="80" height="80" fill="#bdc3c7" stroke="#000" stroke-width="2"/>
</svg>